<?xml version="1.0" encoding="UTF-8" standalone="no"?>
<!-- Generator: Adobe Illustrator 19.1.0, SVG Export Plug-In . SVG Version: 6.00 Build 0)  -->

<svg
   xmlns:dc="http://purl.org/dc/elements/1.1/"
   xmlns:cc="http://creativecommons.org/ns#"
   xmlns:rdf="http://www.w3.org/1999/02/22-rdf-syntax-ns#"
   xmlns:svg="http://www.w3.org/2000/svg"
   xmlns="http://www.w3.org/2000/svg"
   xmlns:sodipodi="http://sodipodi.sourceforge.net/DTD/sodipodi-0.dtd"
   xmlns:inkscape="http://www.inkscape.org/namespaces/inkscape"
   version="1.1"
   x="0px"
   y="0px"
   width="24px"
   height="24px"
   viewBox="0 0 24 24"
   enable-background="new 0 0 24 24"
   xml:space="preserve"
   id="svg2"
   inkscape:version="0.91 r13725"
   sodipodi:docname="chema.svg"><metadata
     id="metadata20"><rdf:RDF><cc:Work
         rdf:about=""><dc:format>image/svg+xml</dc:format><dc:type
           rdf:resource="http://purl.org/dc/dcmitype/StillImage" /></cc:Work></rdf:RDF></metadata><defs
     id="defs18" /><sodipodi:namedview
     pagecolor="#ffffff"
     bordercolor="#666666"
     borderopacity="1"
     objecttolerance="10"
     gridtolerance="10"
     guidetolerance="10"
     inkscape:pageopacity="0"
     inkscape:pageshadow="2"
     inkscape:window-width="689"
     inkscape:window-height="480"
     id="namedview16"
     showgrid="false"
     inkscape:zoom="9.8333333"
     inkscape:cx="12"
     inkscape:cy="12"
     inkscape:window-x="52"
     inkscape:window-y="30"
     inkscape:window-maximized="0"
     inkscape:current-layer="svg2" /><g
     id="Bounding_Boxes"><g
       id="ui_x5F_spec_x5F_header_copy_3" /><path
       fill="none"
       d="M0,0h24v24H0V0z"
       id="path6" /></g><g
     id="Outline_1_"
     style="fill:#ffffff"><g
       id="ui_x5F_spec_x5F_header_copy_4"
       style="fill:#ffffff" /><g
       id="g10"
       style="fill:#ffffff"><path
         d="M20,8.69V4h-4.69L12,0.69L8.69,4H4v4.69L0.69,12L4,15.31V20h4.69L12,23.31L15.31,20H20v-4.69L23.31,12L20,8.69z M18,14.48    V18h-3.52L12,20.48L9.52,18H6v-3.52L3.52,12L6,9.52V6h3.52L12,3.52L14.48,6H18v3.52L20.48,12L18,14.48z"
         id="path12"
         style="fill:#ffffff" /><path
         d="M12,6.5v11c3.03,0,5.5-2.47,5.5-5.5C17.5,8.97,15.03,6.5,12,6.5z"
         id="path14"
         style="fill:#ffffff" /></g></g></svg>