<?xml version="1.0" encoding="UTF-8" standalone="no"?>
<!-- Generator: Adobe Illustrator 19.1.0, SVG Export Plug-In . SVG Version: 6.00 Build 0)  -->

<svg
   xmlns:dc="http://purl.org/dc/elements/1.1/"
   xmlns:cc="http://creativecommons.org/ns#"
   xmlns:rdf="http://www.w3.org/1999/02/22-rdf-syntax-ns#"
   xmlns:svg="http://www.w3.org/2000/svg"
   xmlns="http://www.w3.org/2000/svg"
   xmlns:sodipodi="http://sodipodi.sourceforge.net/DTD/sodipodi-0.dtd"
   xmlns:inkscape="http://www.inkscape.org/namespaces/inkscape"
   version="1.1"
   x="0px"
   y="0px"
   width="24px"
   height="24px"
   viewBox="0 0 24 24"
   enable-background="new 0 0 24 24"
   xml:space="preserve"
   id="svg2"
   inkscape:version="0.91 r13725"
   sodipodi:docname="message (copy).svg"><metadata
     id="metadata20"><rdf:RDF><cc:Work
         rdf:about=""><dc:format>image/svg+xml</dc:format><dc:type
           rdf:resource="http://purl.org/dc/dcmitype/StillImage" /></cc:Work></rdf:RDF></metadata><defs
     id="defs18" /><sodipodi:namedview
     pagecolor="#ffffff"
     bordercolor="#666666"
     borderopacity="1"
     objecttolerance="10"
     gridtolerance="10"
     guidetolerance="10"
     inkscape:pageopacity="0"
     inkscape:pageshadow="2"
     inkscape:window-width="689"
     inkscape:window-height="480"
     id="namedview16"
     showgrid="false"
     inkscape:zoom="9.8333333"
     inkscape:cx="-2.7457628"
     inkscape:cy="12"
     inkscape:window-x="52"
     inkscape:window-y="30"
     inkscape:window-maximized="0"
     inkscape:current-layer="svg2" /><g
     id="Bounding_Boxes"><g
       id="ui_x5F_spec_x5F_header_copy_2" /><path
       fill="none"
       d="M0,0h24v24H0V0z"
       id="path6" /></g><g
     id="Outline"
     style="fill:#00bdcc;fill-opacity:1"><g
       id="ui_x5F_spec_x5F_header"
       style="fill:#00bdcc;fill-opacity:1" /><g
       id="g10"
       style="fill:#00bdcc;fill-opacity:1"><path
         id="XMLID_641_"
         d="M4,4h16v12H5.17L4,17.17V4L4,4 M4,2C2.9,2,2.01,2.9,2.01,4L2,22l4-4h14c1.1,0,2-0.9,2-2V4    c0-1.1-0.9-2-2-2H4L4,2z"
         style="fill:#00bdcc;fill-opacity:1" /><polygon
         id="XMLID_644_"
         points="6,12 18,12 18,14 6,14 6,12   "
         style="fill:#00bdcc;fill-opacity:1" /><polygon
         id="XMLID_643_"
         points="6,9 18,9 18,11 6,11 6,9   "
         style="fill:#00bdcc;fill-opacity:1" /><polygon
         id="XMLID_642_"
         points="6,6 18,6 18,8 6,8 6,6   "
         style="fill:#00bdcc;fill-opacity:1" /></g></g></svg>