<?xml version="1.0" encoding="UTF-8" standalone="no"?>
<!-- Generator: Adobe Illustrator 19.1.0, SVG Export Plug-In . SVG Version: 6.00 Build 0)  -->

<svg
   xmlns:dc="http://purl.org/dc/elements/1.1/"
   xmlns:cc="http://creativecommons.org/ns#"
   xmlns:rdf="http://www.w3.org/1999/02/22-rdf-syntax-ns#"
   xmlns:svg="http://www.w3.org/2000/svg"
   xmlns="http://www.w3.org/2000/svg"
   xmlns:sodipodi="http://sodipodi.sourceforge.net/DTD/sodipodi-0.dtd"
   xmlns:inkscape="http://www.inkscape.org/namespaces/inkscape"
   version="1.1"
   x="0px"
   y="0px"
   width="24px"
   height="24px"
   viewBox="0 0 24 24"
   enable-background="new 0 0 24 24"
   xml:space="preserve"
   id="svg2"
   inkscape:version="0.91 r13725"
   sodipodi:docname="palette (copy).svg"><metadata
     id="metadata26"><rdf:RDF><cc:Work
         rdf:about=""><dc:format>image/svg+xml</dc:format><dc:type
           rdf:resource="http://purl.org/dc/dcmitype/StillImage" /></cc:Work></rdf:RDF></metadata><defs
     id="defs24" /><sodipodi:namedview
     pagecolor="#ffffff"
     bordercolor="#666666"
     borderopacity="1"
     objecttolerance="10"
     gridtolerance="10"
     guidetolerance="10"
     inkscape:pageopacity="0"
     inkscape:pageshadow="2"
     inkscape:window-width="689"
     inkscape:window-height="480"
     id="namedview22"
     showgrid="false"
     inkscape:zoom="9.8333333"
     inkscape:cx="-2.7457628"
     inkscape:cy="12"
     inkscape:window-x="52"
     inkscape:window-y="30"
     inkscape:window-maximized="0"
     inkscape:current-layer="svg2" /><g
     id="Bounding_Boxes"><g
       id="ui_x5F_spec_x5F_header_copy_2" /><path
       fill="none"
       d="M0,0h24v24H0V0z"
       id="path6" /></g><g
     id="Outline"
     style="fill:#00bdcc;fill-opacity:1"><g
       id="ui_x5F_spec_x5F_header"
       style="fill:#00bdcc;fill-opacity:1" /><g
       id="g10"
       style="fill:#00bdcc;fill-opacity:1"><path
         d="M12,22C6.49,22,2,17.51,2,12S6.49,2,12,2s10,4.04,10,9c0,3.31-2.69,6-6,6h-1.77c-0.28,0-0.5,0.22-0.5,0.5    c0,0.12,0.05,0.23,0.13,0.33c0.41,0.47,0.64,1.06,0.64,1.67C14.5,20.88,13.38,22,12,22z M12,4c-4.41,0-8,3.59-8,8s3.59,8,8,8    c0.28,0,0.5-0.22,0.5-0.5c0-0.16-0.08-0.28-0.14-0.35c-0.41-0.46-0.63-1.05-0.63-1.65c0-1.38,1.12-2.5,2.5-2.5H16    c2.21,0,4-1.79,4-4C20,7.14,16.41,4,12,4z"
         id="path12"
         style="fill:#00bdcc;fill-opacity:1" /><circle
         cx="6.5"
         cy="11.5"
         r="1.5"
         id="circle14"
         style="fill:#00bdcc;fill-opacity:1" /><circle
         cx="9.5"
         cy="7.5"
         r="1.5"
         id="circle16"
         style="fill:#00bdcc;fill-opacity:1" /><circle
         cx="14.5"
         cy="7.5"
         r="1.5"
         id="circle18"
         style="fill:#00bdcc;fill-opacity:1" /><circle
         cx="17.5"
         cy="11.5"
         r="1.5"
         id="circle20"
         style="fill:#00bdcc;fill-opacity:1" /></g></g></svg>