<?xml version="1.0" encoding="UTF-8" standalone="no"?>
<!-- Generator: Adobe Illustrator 19.1.0, SVG Export Plug-In . SVG Version: 6.00 Build 0)  -->

<svg
   xmlns:dc="http://purl.org/dc/elements/1.1/"
   xmlns:cc="http://creativecommons.org/ns#"
   xmlns:rdf="http://www.w3.org/1999/02/22-rdf-syntax-ns#"
   xmlns:svg="http://www.w3.org/2000/svg"
   xmlns="http://www.w3.org/2000/svg"
   xmlns:sodipodi="http://sodipodi.sourceforge.net/DTD/sodipodi-0.dtd"
   xmlns:inkscape="http://www.inkscape.org/namespaces/inkscape"
   version="1.1"
   x="0px"
   y="0px"
   width="24px"
   height="24px"
   viewBox="0 0 24 24"
   enable-background="new 0 0 24 24"
   xml:space="preserve"
   id="svg2"
   inkscape:version="0.91 r13725"
   sodipodi:docname="payment.svg"><metadata
     id="metadata38"><rdf:RDF><cc:Work
         rdf:about=""><dc:format>image/svg+xml</dc:format><dc:type
           rdf:resource="http://purl.org/dc/dcmitype/StillImage" /></cc:Work></rdf:RDF></metadata><defs
     id="defs36" /><sodipodi:namedview
     pagecolor="#ffffff"
     bordercolor="#666666"
     borderopacity="1"
     objecttolerance="10"
     gridtolerance="10"
     guidetolerance="10"
     inkscape:pageopacity="0"
     inkscape:pageshadow="2"
     inkscape:window-width="689"
     inkscape:window-height="480"
     id="namedview34"
     showgrid="false"
     inkscape:zoom="9.8333333"
     inkscape:cx="12"
     inkscape:cy="12"
     inkscape:window-x="52"
     inkscape:window-y="30"
     inkscape:window-maximized="0"
     inkscape:current-layer="svg2" /><g
     id="Bounding_Boxes"><g
       id="ui_x5F_spec_x5F_header_copy_3"
       display="none" /><path
       fill="none"
       d="M0,0h24v24H0V0z"
       id="path6" /></g><g
     id="Rounded"
     display="none"><g
       id="ui_x5F_spec_x5F_header_copy_5" /><path
       display="inline"
       d="M20,4H4C2.89,4,2.01,4.89,2.01,6L2,18c0,1.11,0.89,2,2,2h16c1.11,0,2-0.89,2-2V6C22,4.89,21.11,4,20,4z    M19,18H5c-0.55,0-1-0.45-1-1v-5h16v5C20,17.55,19.55,18,19,18z M20,8H4V7c0-0.55,0.45-1,1-1h14c0.55,0,1,0.45,1,1V8z"
       id="path10" /></g><g
     id="Sharp"
     display="none"><g
       id="ui_x5F_spec_x5F_header_copy_4" /><path
       display="inline"
       d="M22,4H2v16h20V4z M20,18H4v-6h16V18z M20,8H4V6h16V8z"
       id="path14" /></g><g
     id="Outline"
     style="fill:#ffffff"><g
       id="ui_x5F_spec_x5F_header"
       display="none"
       style="fill:#ffffff" /><path
       d="M20,4H4C2.89,4,2.01,4.89,2.01,6L2,18c0,1.11,0.89,2,2,2h16c1.11,0,2-0.89,2-2V6C22,4.89,21.11,4,20,4z M20,18H4v-6h16V18z    M20,8H4V6h16V8z"
       id="path18"
       style="fill:#ffffff" /></g><g
     id="Duotone"
     display="none"><g
       id="ui_x5F_spec_x5F_header_copy_2" /><g
       display="inline"
       id="g22"><rect
         x="4"
         y="6"
         opacity="0.3"
         width="16"
         height="2"
         id="rect24" /><rect
         x="4"
         y="12"
         opacity="0.3"
         width="16"
         height="6"
         id="rect26" /><path
         d="M20,4H4C2.89,4,2.01,4.89,2.01,6L2,18c0,1.11,0.89,2,2,2h16c1.11,0,2-0.89,2-2V6C22,4.89,21.11,4,20,4z M20,18H4v-6h16V18    z M20,8H4V6h16V8z"
         id="path28" /></g></g><g
     id="Material"
     display="none"><g
       id="ui_x5F_spec_x5F_header_copy" /><path
       display="inline"
       d="M20,4H4C2.89,4,2.01,4.89,2.01,6L2,18c0,1.11,0.89,2,2,2h16c1.11,0,2-0.89,2-2V6C22,4.89,21.11,4,20,4z    M20,18H4v-6h16V18z M20,8H4V6h16V8z"
       id="path32" /></g></svg>